<?xml version="1.0" encoding="UTF-8"?>
<svg xmlns="http://www.w3.org/2000/svg" viewBox="0 0 96 96" role="img" aria-labelledby="xinanyuLogoTitle xinanyuLogoDesc">
  <title id="xinanyuLogoTitle">心安屿 Logo</title>
  <desc id="xinanyuLogoDesc">一枚由圆角细框、安定小点、心形、小岛和水纹组成的心安屿品牌标记。</desc>
  <rect class="logo-frame" x="13" y="13" width="70" height="70" rx="20" fill="#fffaf4" stroke="#d7bea6" stroke-width="1.2"/>
  <circle class="rest-dot" cx="48" cy="26" r="2.8" fill="#c5ad8c"/>
  <path class="heart" d="M48 54.2c-7.6-5.1-11.6-9-11.6-13.8 0-4.1 3.1-7.3 7-7.3 2.2 0 3.8.9 4.6 2.2.8-1.3 2.4-2.2 4.6-2.2 3.9 0 7 3.2 7 7.3 0 4.8-4 8.7-11.6 13.8Z" fill="#b87552"/>
  <path class="island" d="M27.5 59.7c5.1-5.1 11.9-7.7 20.3-7.7 8.5 0 15.5 2.6 20.7 7.7-5.4 2.1-12.2 3.2-20.4 3.2-8.1 0-15-1.1-20.6-3.2Z" fill="#77775c"/>
  <path class="water-line" d="M21.5 60.6c7.5 1.7 16.4 2.5 26.5 2.5 10.2 0 19-.8 26.5-2.5" fill="none" stroke="#cdb78f" stroke-width="3.7" stroke-linecap="round"/>
  <path class="water-line" d="M25.5 68.1c5.5 1.2 12 1.8 19.4 1.8" fill="none" stroke="#cdb78f" stroke-width="3.1" stroke-linecap="round" stroke-opacity=".88"/>
  <path class="water-line" d="M51.4 69.9c6.9-.1 13-.8 18.2-2" fill="none" stroke="#cdb78f" stroke-width="3.1" stroke-linecap="round" stroke-opacity=".88"/>
  <path class="water-line" d="M33.3 75.1c3.1.6 6.7.9 10.9.9" fill="none" stroke="#cdb78f" stroke-width="2.7" stroke-linecap="round" stroke-opacity=".7"/>
  <path class="water-line" d="M51.8 76c4.1-.1 7.7-.5 10.9-1.1" fill="none" stroke="#cdb78f" stroke-width="2.7" stroke-linecap="round" stroke-opacity=".7"/>
</svg>
